<?xml version="1.0" encoding="UTF-8" standalone="no"?>
<!-- Created with Inkscape (http://www.inkscape.org/) -->

<svg
   xmlns:dc="http://purl.org/dc/elements/1.1/"
   xmlns:cc="http://creativecommons.org/ns#"
   xmlns:rdf="http://www.w3.org/1999/02/22-rdf-syntax-ns#"
   xmlns:svg="http://www.w3.org/2000/svg"
   xmlns="http://www.w3.org/2000/svg"
   xmlns:sodipodi="http://sodipodi.sourceforge.net/DTD/sodipodi-0.dtd"
   xmlns:inkscape="http://www.inkscape.org/namespaces/inkscape"
   width="744.09448"
   height="1052.3622"
   id="svg2"
   version="1.1"
   inkscape:version="0.48.2 r9819"
   sodipodi:docname="Servo.svg">
  <defs
     id="defs4" />
  <sodipodi:namedview
     id="base"
     pagecolor="#ffffff"
     bordercolor="#666666"
     borderopacity="1.0"
     inkscape:pageopacity="0.0"
     inkscape:pageshadow="2"
     inkscape:zoom="1.979899"
     inkscape:cx="338.82784"
     inkscape:cy="234.94418"
     inkscape:document-units="px"
     inkscape:current-layer="layer1"
     showgrid="true"
     units="mm"
     inkscape:window-width="1920"
     inkscape:window-height="1018"
     inkscape:window-x="-8"
     inkscape:window-y="-8"
     inkscape:window-maximized="1">
    <inkscape:grid
       type="xygrid"
       id="grid2985"
       units="mm"
       empspacing="4"
       visible="true"
       enabled="true"
       snapvisiblegridlinesonly="true" />
  </sodipodi:namedview>
  <metadata
     id="metadata7">
    <rdf:RDF>
      <cc:Work
         rdf:about="">
        <dc:format>image/svg+xml</dc:format>
        <dc:type
           rdf:resource="http://purl.org/dc/dcmitype/StillImage" />
        <dc:title></dc:title>
      </cc:Work>
    </rdf:RDF>
  </metadata>
  <g
     inkscape:label="Layer 1"
     inkscape:groupmode="layer"
     id="layer1"
     transform="translate(0,-2.5390623e-6)">
    <rect
       style="fill:#ffb380;fill-opacity:1;stroke:#1a1a1a;stroke-width:0.99999988;stroke-miterlimit:4;stroke-dasharray:none"
       id="rect3979"
       width="85.039352"
       height="141.73228"
       x="340.1575"
       y="754.72437" />
    <path
       transform="translate(311.81102,-113.38581)"
       sodipodi:type="arc"
       style="fill:#ffff00;fill-opacity:1;stroke:#1a1a1a;stroke-width:1;stroke-miterlimit:4;stroke-dasharray:none"
       id="path3797-45-6-8-3"
       sodipodi:cx="99.212601"
       sodipodi:cy="995.66925"
       sodipodi:rx="7.0866141"
       sodipodi:ry="7.0866141"
       d="m 106.29921,995.66925 c 0,3.91383 -3.17278,7.08665 -7.086609,7.08665 -3.913829,0 -7.086614,-3.17282 -7.086614,-7.08665 0,-3.91383 3.172785,-7.08661 7.086614,-7.08661 3.913829,0 7.086609,3.17278 7.086609,7.08661 z" />
    <path
       transform="translate(311.81102,-226.77163)"
       sodipodi:type="arc"
       style="fill:#ffff00;fill-opacity:1;stroke:#1a1a1a;stroke-width:1;stroke-miterlimit:4;stroke-dasharray:none"
       id="path3797-45-6-8-4"
       sodipodi:cx="99.212601"
       sodipodi:cy="995.66925"
       sodipodi:rx="7.0866141"
       sodipodi:ry="7.0866141"
       d="m 106.29921,995.66925 c 0,3.91383 -3.17278,7.08665 -7.086609,7.08665 -3.913829,0 -7.086614,-3.17282 -7.086614,-7.08665 0,-3.91383 3.172785,-7.08661 7.086614,-7.08661 3.913829,0 7.086609,3.17278 7.086609,7.08661 z" />
    <path
       transform="translate(311.81102,-170.07872)"
       sodipodi:type="arc"
       style="fill:#ffff00;fill-opacity:1;stroke:#1a1a1a;stroke-width:1;stroke-miterlimit:4;stroke-dasharray:none"
       id="path3797-45-6-8-3-1"
       sodipodi:cx="99.212601"
       sodipodi:cy="995.66925"
       sodipodi:rx="7.0866141"
       sodipodi:ry="7.0866141"
       d="m 106.29921,995.66925 c 0,3.91383 -3.17278,7.08665 -7.086609,7.08665 -3.913829,0 -7.086614,-3.17282 -7.086614,-7.08665 0,-3.91383 3.172785,-7.08661 7.086614,-7.08661 3.913829,0 7.086609,3.17278 7.086609,7.08661 z" />
    <path
       transform="translate(255.11811,-170.07872)"
       sodipodi:type="arc"
       style="fill:#ffff00;fill-opacity:1;stroke:#1a1a1a;stroke-width:1;stroke-miterlimit:4;stroke-dasharray:none"
       id="path3797-45-6-8-3-13"
       sodipodi:cx="99.212601"
       sodipodi:cy="995.66925"
       sodipodi:rx="7.0866141"
       sodipodi:ry="7.0866141"
       d="m 106.29921,995.66925 c 0,3.91383 -3.17278,7.08665 -7.086609,7.08665 -3.913829,0 -7.086614,-3.17282 -7.086614,-7.08665 0,-3.91383 3.172785,-7.08661 7.086614,-7.08661 3.913829,0 7.086609,3.17278 7.086609,7.08661 z" />
    <path
       transform="translate(255.11811,-113.38581)"
       sodipodi:type="arc"
       style="fill:#ffff00;fill-opacity:1;stroke:#1a1a1a;stroke-width:1;stroke-miterlimit:4;stroke-dasharray:none"
       id="path3797-45-6"
       sodipodi:cx="99.212601"
       sodipodi:cy="995.66925"
       sodipodi:rx="7.0866141"
       sodipodi:ry="7.0866141"
       d="m 106.29921,995.66925 c 0,3.91383 -3.17278,7.08665 -7.086609,7.08665 -3.913829,0 -7.086614,-3.17282 -7.086614,-7.08665 0,-3.91383 3.172785,-7.08661 7.086614,-7.08661 3.913829,0 7.086609,3.17278 7.086609,7.08661 z" />
    <path
       transform="translate(283.46456,-113.38581)"
       sodipodi:type="arc"
       style="fill:#ffff00;fill-opacity:1;stroke:#1a1a1a;stroke-width:1;stroke-miterlimit:4;stroke-dasharray:none"
       id="path3797-45-6-8"
       sodipodi:cx="99.212601"
       sodipodi:cy="995.66925"
       sodipodi:rx="7.0866141"
       sodipodi:ry="7.0866141"
       d="m 106.29921,995.66925 c 0,3.91383 -3.17278,7.08665 -7.086609,7.08665 -3.913829,0 -7.086614,-3.17282 -7.086614,-7.08665 0,-3.91383 3.172785,-7.08661 7.086614,-7.08661 3.913829,0 7.086609,3.17278 7.086609,7.08661 z" />
    <path
       transform="translate(255.11811,-226.77163)"
       sodipodi:type="arc"
       style="fill:#ffff00;fill-opacity:1;stroke:#1a1a1a;stroke-width:1;stroke-miterlimit:4;stroke-dasharray:none"
       id="path3797-45-6-5"
       sodipodi:cx="99.212601"
       sodipodi:cy="995.66925"
       sodipodi:rx="7.0866141"
       sodipodi:ry="7.0866141"
       d="m 106.29921,995.66925 c 0,3.91383 -3.17278,7.08665 -7.086609,7.08665 -3.913829,0 -7.086614,-3.17282 -7.086614,-7.08665 0,-3.91383 3.172785,-7.08661 7.086614,-7.08661 3.913829,0 7.086609,3.17278 7.086609,7.08661 z" />
    <path
       sodipodi:type="arc"
       style="fill:#ffb380;fill-opacity:1;stroke:#1a1a1a;stroke-width:1;stroke-miterlimit:4;stroke-dasharray:none"
       id="path3949"
       sodipodi:cx="325.98425"
       sodipodi:cy="938.97638"
       sodipodi:rx="10.629921"
       sodipodi:ry="10.629921"
       d="m 336.61417,938.97638 c 0,5.87074 -4.75917,10.62992 -10.62992,10.62992 -5.87074,0 -10.62992,-4.75918 -10.62992,-10.62992 0,-5.87074 4.75918,-10.62992 10.62992,-10.62992 5.87075,0 10.62992,4.75918 10.62992,10.62992 z"
       transform="translate(56.692913,-113.38585)" />
    <rect
       style="fill:#cccccc;fill-opacity:1;stroke:#1a1a1a;stroke-width:1;stroke-miterlimit:4;stroke-dasharray:none"
       id="rect3791"
       width="141.73228"
       height="141.73228"
       x="113.38583"
       y="754.72437" />
    <path
       sodipodi:type="arc"
       style="fill:#ffb380;fill-opacity:1;stroke:#1a1a1a;stroke-width:1;stroke-miterlimit:4;stroke-dasharray:none"
       id="path3797"
       sodipodi:cx="99.212601"
       sodipodi:cy="995.66925"
       sodipodi:rx="7.0866141"
       sodipodi:ry="7.0866141"
       d="m 106.29921,995.66925 c 0,3.91383 -3.17278,7.08665 -7.086609,7.08665 -3.913829,0 -7.086614,-3.17282 -7.086614,-7.08665 0,-3.91383 3.172785,-7.08661 7.086614,-7.08661 3.913829,0 7.086609,3.17278 7.086609,7.08661 z"
       transform="translate(28.34646,-113.38586)" />
    <path
       transform="translate(28.346458,-141.7323)"
       sodipodi:type="arc"
       style="fill:#ffb380;fill-opacity:1;stroke:#1a1a1a;stroke-width:1;stroke-miterlimit:4;stroke-dasharray:none"
       id="path3797-1"
       sodipodi:cx="99.212601"
       sodipodi:cy="995.66925"
       sodipodi:rx="7.0866141"
       sodipodi:ry="7.0866141"
       d="m 106.29921,995.66925 c 0,3.91383 -3.17278,7.08665 -7.086609,7.08665 -3.913829,0 -7.086614,-3.17282 -7.086614,-7.08665 0,-3.91383 3.172785,-7.08661 7.086614,-7.08661 3.913829,0 7.086609,3.17278 7.086609,7.08661 z" />
    <path
       transform="translate(28.346458,-198.42521)"
       sodipodi:type="arc"
       style="fill:#ffb380;fill-opacity:1;stroke:#1a1a1a;stroke-width:1;stroke-miterlimit:4;stroke-dasharray:none"
       id="path3797-7"
       sodipodi:cx="99.212601"
       sodipodi:cy="995.66925"
       sodipodi:rx="7.0866141"
       sodipodi:ry="7.0866141"
       d="m 106.29921,995.66925 c 0,3.91383 -3.17278,7.08665 -7.086609,7.08665 -3.913829,0 -7.086614,-3.17282 -7.086614,-7.08665 0,-3.91383 3.172785,-7.08661 7.086614,-7.08661 3.913829,0 7.086609,3.17278 7.086609,7.08661 z" />
    <path
       transform="translate(28.346458,-170.07875)"
       sodipodi:type="arc"
       style="fill:#ffb380;fill-opacity:1;stroke:#1a1a1a;stroke-width:1;stroke-miterlimit:4;stroke-dasharray:none"
       id="path3797-4"
       sodipodi:cx="99.212601"
       sodipodi:cy="995.66925"
       sodipodi:rx="7.0866141"
       sodipodi:ry="7.0866141"
       d="m 106.29921,995.66925 c 0,3.91383 -3.17278,7.08665 -7.086609,7.08665 -3.913829,0 -7.086614,-3.17282 -7.086614,-7.08665 0,-3.91383 3.172785,-7.08661 7.086614,-7.08661 3.913829,0 7.086609,3.17278 7.086609,7.08661 z" />
    <path
       transform="translate(28.346458,-226.77167)"
       sodipodi:type="arc"
       style="fill:#ffb380;fill-opacity:1;stroke:#1a1a1a;stroke-width:1;stroke-miterlimit:4;stroke-dasharray:none"
       id="path3797-0"
       sodipodi:cx="99.212601"
       sodipodi:cy="995.66925"
       sodipodi:rx="7.0866141"
       sodipodi:ry="7.0866141"
       d="m 106.29921,995.66925 c 0,3.91383 -3.17278,7.08665 -7.086609,7.08665 -3.913829,0 -7.086614,-3.17282 -7.086614,-7.08665 0,-3.91383 3.172785,-7.08661 7.086614,-7.08661 3.913829,0 7.086609,3.17278 7.086609,7.08661 z" />
    <path
       transform="translate(141.73228,-226.77167)"
       sodipodi:type="arc"
       style="fill:#ffb380;fill-opacity:1;stroke:#1a1a1a;stroke-width:1;stroke-miterlimit:4;stroke-dasharray:none"
       id="path3797-9"
       sodipodi:cx="99.212601"
       sodipodi:cy="995.66925"
       sodipodi:rx="7.0866141"
       sodipodi:ry="7.0866141"
       d="m 106.29921,995.66925 c 0,3.91383 -3.17278,7.08665 -7.086609,7.08665 -3.913829,0 -7.086614,-3.17282 -7.086614,-7.08665 0,-3.91383 3.172785,-7.08661 7.086614,-7.08661 3.913829,0 7.086609,3.17278 7.086609,7.08661 z" />
    <path
       transform="translate(141.73228,-198.42521)"
       sodipodi:type="arc"
       style="fill:#ffb380;fill-opacity:1;stroke:#1a1a1a;stroke-width:1;stroke-miterlimit:4;stroke-dasharray:none"
       id="path3797-48"
       sodipodi:cx="99.212601"
       sodipodi:cy="995.66925"
       sodipodi:rx="7.0866141"
       sodipodi:ry="7.0866141"
       d="m 106.29921,995.66925 c 0,3.91383 -3.17278,7.08665 -7.086609,7.08665 -3.913829,0 -7.086614,-3.17282 -7.086614,-7.08665 0,-3.91383 3.172785,-7.08661 7.086614,-7.08661 3.913829,0 7.086609,3.17278 7.086609,7.08661 z" />
    <path
       transform="translate(141.73228,-170.07875)"
       sodipodi:type="arc"
       style="fill:#ffb380;fill-opacity:1;stroke:#1a1a1a;stroke-width:1;stroke-miterlimit:4;stroke-dasharray:none"
       id="path3797-8"
       sodipodi:cx="99.212601"
       sodipodi:cy="995.66925"
       sodipodi:rx="7.0866141"
       sodipodi:ry="7.0866141"
       d="m 106.29921,995.66925 c 0,3.91383 -3.17278,7.08665 -7.086609,7.08665 -3.913829,0 -7.086614,-3.17282 -7.086614,-7.08665 0,-3.91383 3.172785,-7.08661 7.086614,-7.08661 3.913829,0 7.086609,3.17278 7.086609,7.08661 z" />
    <path
       transform="translate(141.73228,-141.7323)"
       sodipodi:type="arc"
       style="fill:#ffb380;fill-opacity:1;stroke:#1a1a1a;stroke-width:1;stroke-miterlimit:4;stroke-dasharray:none"
       id="path3797-2"
       sodipodi:cx="99.212601"
       sodipodi:cy="995.66925"
       sodipodi:rx="7.0866141"
       sodipodi:ry="7.0866141"
       d="m 106.29921,995.66925 c 0,3.91383 -3.17278,7.08665 -7.086609,7.08665 -3.913829,0 -7.086614,-3.17282 -7.086614,-7.08665 0,-3.91383 3.172785,-7.08661 7.086614,-7.08661 3.913829,0 7.086609,3.17278 7.086609,7.08661 z" />
    <path
       transform="translate(141.73228,-113.38584)"
       sodipodi:type="arc"
       style="fill:#ffb380;fill-opacity:1;stroke:#1a1a1a;stroke-width:1;stroke-miterlimit:4;stroke-dasharray:none"
       id="path3797-45"
       sodipodi:cx="99.212601"
       sodipodi:cy="995.66925"
       sodipodi:rx="7.0866141"
       sodipodi:ry="7.0866141"
       d="m 106.29921,995.66925 c 0,3.91383 -3.17278,7.08665 -7.086609,7.08665 -3.913829,0 -7.086614,-3.17282 -7.086614,-7.08665 0,-3.91383 3.172785,-7.08661 7.086614,-7.08661 3.913829,0 7.086609,3.17278 7.086609,7.08661 z" />
    <path
       transform="translate(56.692914,-113.38584)"
       sodipodi:type="arc"
       style="fill:#ffb380;fill-opacity:1;stroke:#1a1a1a;stroke-width:1;stroke-miterlimit:4;stroke-dasharray:none"
       id="path3797-11"
       sodipodi:cx="99.212601"
       sodipodi:cy="995.66925"
       sodipodi:rx="7.0866141"
       sodipodi:ry="7.0866141"
       d="m 106.29921,995.66925 c 0,3.91383 -3.17278,7.08665 -7.086609,7.08665 -3.913829,0 -7.086614,-3.17282 -7.086614,-7.08665 0,-3.91383 3.172785,-7.08661 7.086614,-7.08661 3.913829,0 7.086609,3.17278 7.086609,7.08661 z" />
    <path
       transform="translate(113.38583,-113.38584)"
       sodipodi:type="arc"
       style="fill:#ffb380;fill-opacity:1;stroke:#1a1a1a;stroke-width:1;stroke-miterlimit:4;stroke-dasharray:none"
       id="path3797-52"
       sodipodi:cx="99.212601"
       sodipodi:cy="995.66925"
       sodipodi:rx="7.0866141"
       sodipodi:ry="7.0866141"
       d="m 106.29921,995.66925 c 0,3.91383 -3.17278,7.08665 -7.086609,7.08665 -3.913829,0 -7.086614,-3.17282 -7.086614,-7.08665 0,-3.91383 3.172785,-7.08661 7.086614,-7.08661 3.913829,0 7.086609,3.17278 7.086609,7.08661 z" />
    <rect
       style="fill:#ffff00;fill-opacity:1;stroke:#1a1a1a;stroke-width:1;stroke-miterlimit:4;stroke-dasharray:none"
       id="rect3757"
       width="42.519684"
       height="85.039368"
       x="162.99213"
       y="775.98419" />
    <path
       style="fill:none;stroke:#000000;stroke-width:1px;stroke-linecap:butt;stroke-linejoin:miter;stroke-opacity:1"
       d="m 184.25197,768.89758 0,56.69292"
       id="path3759"
       inkscape:connector-curvature="0" />
    <path
       style="fill:none;stroke:#000000;stroke-width:1px;stroke-linecap:butt;stroke-linejoin:miter;stroke-opacity:1"
       d="m 159.44882,797.24404 49.60631,0"
       id="path3761"
       inkscape:connector-curvature="0" />
    <path
       style="fill:none;stroke:#000000;stroke-width:1px;stroke-linecap:butt;stroke-linejoin:miter;stroke-opacity:1"
       d="m 99.212602,768.89758 170.078738,0"
       id="path3771"
       inkscape:connector-curvature="0" />
    <path
       style="fill:none;stroke:#000000;stroke-width:1px;stroke-linecap:butt;stroke-linejoin:miter;stroke-opacity:1"
       d="m 99.212602,797.24404 170.078738,0"
       id="path3773"
       inkscape:connector-curvature="0" />
    <path
       style="fill:none;stroke:#000000;stroke-width:1px;stroke-linecap:butt;stroke-linejoin:miter;stroke-opacity:1"
       d="m 99.212602,825.5905 170.078738,0"
       id="path3775"
       inkscape:connector-curvature="0" />
    <path
       style="fill:none;stroke:#000000;stroke-width:1px;stroke-linecap:butt;stroke-linejoin:miter;stroke-opacity:1"
       d="m 99.212602,853.93695 170.078738,0"
       id="path3777"
       inkscape:connector-curvature="0" />
    <path
       style="fill:none;stroke:#000000;stroke-width:1px;stroke-linecap:butt;stroke-linejoin:miter;stroke-opacity:1"
       d="m 99.212602,882.28341 170.078738,0"
       id="path3779"
       inkscape:connector-curvature="0" />
    <path
       style="fill:none;stroke:#000000;stroke-width:1px;stroke-linecap:butt;stroke-linejoin:miter;stroke-opacity:1"
       d="m 184.25197,740.55113 0,170.07871"
       id="path3781"
       inkscape:connector-curvature="0" />
    <path
       style="fill:none;stroke:#000000;stroke-width:1px;stroke-linecap:butt;stroke-linejoin:miter;stroke-opacity:1"
       d="m 212.59843,740.55113 0,170.07871"
       id="path3783"
       inkscape:connector-curvature="0" />
    <path
       style="fill:none;stroke:#000000;stroke-width:1px;stroke-linecap:butt;stroke-linejoin:miter;stroke-opacity:1"
       d="m 240.94489,740.55113 0,170.07871"
       id="path3785"
       inkscape:connector-curvature="0" />
    <path
       style="fill:none;stroke:#000000;stroke-width:1px;stroke-linecap:butt;stroke-linejoin:miter;stroke-opacity:1"
       d="m 155.90552,740.55113 0,170.07871"
       id="path3787"
       inkscape:connector-curvature="0" />
    <path
       style="fill:none;stroke:#000000;stroke-width:1px;stroke-linecap:butt;stroke-linejoin:miter;stroke-opacity:1"
       d="m 127.55906,740.55113 0,170.07871"
       id="path3789"
       inkscape:connector-curvature="0" />
    <path
       sodipodi:type="arc"
       style="fill:#cccccc;fill-opacity:1;stroke:#1a1a1a;stroke-width:1;stroke-miterlimit:4;stroke-dasharray:none"
       id="path3793"
       sodipodi:cx="155.90552"
       sodipodi:cy="882.28345"
       sodipodi:rx="3.5433071"
       sodipodi:ry="3.5433071"
       d="m 159.44882,882.28345 c 0,1.95691 -1.58639,3.5433 -3.5433,3.5433 -1.95692,0 -3.54331,-1.58639 -3.54331,-3.5433 0,-1.95692 1.58639,-3.54331 3.54331,-3.54331 1.95691,0 3.5433,1.58639 3.5433,3.54331 z"
       transform="translate(28.34646,-113.38586)" />
    <path
       sodipodi:type="arc"
       style="fill:#cccccc;fill-opacity:1;stroke:#1a1a1a;stroke-width:1;stroke-miterlimit:4;stroke-dasharray:none"
       id="path3795"
       sodipodi:cx="155.90552"
       sodipodi:cy="981.49603"
       sodipodi:rx="3.5433071"
       sodipodi:ry="3.5433071"
       d="m 159.44882,981.49603 c 0,1.95692 -1.58639,3.54331 -3.5433,3.54331 -1.95692,0 -3.54331,-1.58639 -3.54331,-3.54331 0,-1.95691 1.58639,-3.5433 3.54331,-3.5433 1.95691,0 3.5433,1.58639 3.5433,3.5433 z"
       transform="translate(28.34646,-113.38586)" />
    <path
       style="fill:none;stroke:#000000;stroke-width:1px;stroke-linecap:butt;stroke-linejoin:miter;stroke-opacity:1"
       d="m 382.67718,740.55114 0,170.0787"
       id="path3781-7"
       inkscape:connector-curvature="0" />
    <path
       style="fill:none;stroke:#000000;stroke-width:1px;stroke-linecap:butt;stroke-linejoin:miter;stroke-opacity:1"
       d="m 354.33073,740.55114 0,170.0787"
       id="path3787-6"
       inkscape:connector-curvature="0" />
    <path
       style="fill:none;stroke:#000000;stroke-width:0.81649655px;stroke-linecap:butt;stroke-linejoin:miter;stroke-opacity:1"
       d="m 325.98425,768.89762 113.38582,0"
       id="path3773-4"
       inkscape:connector-curvature="0" />
    <path
       style="fill:none;stroke:#000000;stroke-width:0.81649655px;stroke-linecap:butt;stroke-linejoin:miter;stroke-opacity:1"
       d="m 325.98426,825.59051 113.38582,0"
       id="path3775-2"
       inkscape:connector-curvature="0" />
    <path
       style="fill:none;stroke:#000000;stroke-width:0.81649655px;stroke-linecap:butt;stroke-linejoin:miter;stroke-opacity:1"
       d="m 325.98426,882.28344 113.38582,0"
       id="path3777-3"
       inkscape:connector-curvature="0" />
    <path
       style="fill:none;stroke:#000000;stroke-width:1px;stroke-linecap:butt;stroke-linejoin:miter;stroke-opacity:1"
       d="m 411.02362,740.5512 0,170.0787"
       id="path3781-7-3"
       inkscape:connector-curvature="0" />
    <rect
       style="fill:#ffb380;fill-opacity:1;stroke:#1a1a1a;stroke-width:0.99999988;stroke-miterlimit:4;stroke-dasharray:none"
       id="rect3979-2"
       width="85.039352"
       height="141.73228"
       x="467.71655"
       y="754.72437" />
    <path
       transform="translate(439.37008,-113.38581)"
       sodipodi:type="arc"
       style="fill:#ffff00;fill-opacity:1;stroke:#1a1a1a;stroke-width:1;stroke-miterlimit:4;stroke-dasharray:none"
       id="path3797-45-6-8-3-0"
       sodipodi:cx="99.212601"
       sodipodi:cy="995.66925"
       sodipodi:rx="7.0866141"
       sodipodi:ry="7.0866141"
       d="m 106.29921,995.66925 c 0,3.91383 -3.17278,7.08665 -7.086609,7.08665 -3.913829,0 -7.086614,-3.17282 -7.086614,-7.08665 0,-3.91383 3.172785,-7.08661 7.086614,-7.08661 3.913829,0 7.086609,3.17278 7.086609,7.08661 z" />
    <path
       transform="translate(439.37008,-226.77163)"
       sodipodi:type="arc"
       style="fill:#ffff00;fill-opacity:1;stroke:#1a1a1a;stroke-width:1;stroke-miterlimit:4;stroke-dasharray:none"
       id="path3797-45-6-8-4-0"
       sodipodi:cx="99.212601"
       sodipodi:cy="995.66925"
       sodipodi:rx="7.0866141"
       sodipodi:ry="7.0866141"
       d="m 106.29921,995.66925 c 0,3.91383 -3.17278,7.08665 -7.086609,7.08665 -3.913829,0 -7.086614,-3.17282 -7.086614,-7.08665 0,-3.91383 3.172785,-7.08661 7.086614,-7.08661 3.913829,0 7.086609,3.17278 7.086609,7.08661 z" />
    <path
       transform="translate(439.37008,-170.07872)"
       sodipodi:type="arc"
       style="fill:#ffff00;fill-opacity:1;stroke:#1a1a1a;stroke-width:1;stroke-miterlimit:4;stroke-dasharray:none"
       id="path3797-45-6-8-3-1-1"
       sodipodi:cx="99.212601"
       sodipodi:cy="995.66925"
       sodipodi:rx="7.0866141"
       sodipodi:ry="7.0866141"
       d="m 106.29921,995.66925 c 0,3.91383 -3.17278,7.08665 -7.086609,7.08665 -3.913829,0 -7.086614,-3.17282 -7.086614,-7.08665 0,-3.91383 3.172785,-7.08661 7.086614,-7.08661 3.913829,0 7.086609,3.17278 7.086609,7.08661 z" />
    <path
       transform="translate(382.67717,-170.07872)"
       sodipodi:type="arc"
       style="fill:#ffff00;fill-opacity:1;stroke:#1a1a1a;stroke-width:1;stroke-miterlimit:4;stroke-dasharray:none"
       id="path3797-45-6-8-3-13-4"
       sodipodi:cx="99.212601"
       sodipodi:cy="995.66925"
       sodipodi:rx="7.0866141"
       sodipodi:ry="7.0866141"
       d="m 106.29921,995.66925 c 0,3.91383 -3.17278,7.08665 -7.086609,7.08665 -3.913829,0 -7.086614,-3.17282 -7.086614,-7.08665 0,-3.91383 3.172785,-7.08661 7.086614,-7.08661 3.913829,0 7.086609,3.17278 7.086609,7.08661 z" />
    <path
       transform="translate(382.67717,-113.38581)"
       sodipodi:type="arc"
       style="fill:#ffff00;fill-opacity:1;stroke:#1a1a1a;stroke-width:1;stroke-miterlimit:4;stroke-dasharray:none"
       id="path3797-45-6-6"
       sodipodi:cx="99.212601"
       sodipodi:cy="995.66925"
       sodipodi:rx="7.0866141"
       sodipodi:ry="7.0866141"
       d="m 106.29921,995.66925 c 0,3.91383 -3.17278,7.08665 -7.086609,7.08665 -3.913829,0 -7.086614,-3.17282 -7.086614,-7.08665 0,-3.91383 3.172785,-7.08661 7.086614,-7.08661 3.913829,0 7.086609,3.17278 7.086609,7.08661 z" />
    <path
       transform="translate(411.02362,-113.38581)"
       sodipodi:type="arc"
       style="fill:#ffff00;fill-opacity:1;stroke:#1a1a1a;stroke-width:1;stroke-miterlimit:4;stroke-dasharray:none"
       id="path3797-45-6-8-0"
       sodipodi:cx="99.212601"
       sodipodi:cy="995.66925"
       sodipodi:rx="7.0866141"
       sodipodi:ry="7.0866141"
       d="m 106.29921,995.66925 c 0,3.91383 -3.17278,7.08665 -7.086609,7.08665 -3.913829,0 -7.086614,-3.17282 -7.086614,-7.08665 0,-3.91383 3.172785,-7.08661 7.086614,-7.08661 3.913829,0 7.086609,3.17278 7.086609,7.08661 z" />
    <path
       transform="translate(382.67717,-226.77163)"
       sodipodi:type="arc"
       style="fill:#ffff00;fill-opacity:1;stroke:#1a1a1a;stroke-width:1;stroke-miterlimit:4;stroke-dasharray:none"
       id="path3797-45-6-5-7"
       sodipodi:cx="99.212601"
       sodipodi:cy="995.66925"
       sodipodi:rx="7.0866141"
       sodipodi:ry="7.0866141"
       d="m 106.29921,995.66925 c 0,3.91383 -3.17278,7.08665 -7.086609,7.08665 -3.913829,0 -7.086614,-3.17282 -7.086614,-7.08665 0,-3.91383 3.172785,-7.08661 7.086614,-7.08661 3.913829,0 7.086609,3.17278 7.086609,7.08661 z" />
    <path
       sodipodi:type="arc"
       style="fill:#ffb380;fill-opacity:1;stroke:#1a1a1a;stroke-width:1;stroke-miterlimit:4;stroke-dasharray:none"
       id="path3949-1"
       sodipodi:cx="325.98425"
       sodipodi:cy="938.97638"
       sodipodi:rx="10.629921"
       sodipodi:ry="10.629921"
       d="m 336.61417,938.97638 c 0,5.87074 -4.75917,10.62992 -10.62992,10.62992 -5.87074,0 -10.62992,-4.75918 -10.62992,-10.62992 0,-5.87074 4.75918,-10.62992 10.62992,-10.62992 5.87075,0 10.62992,4.75918 10.62992,10.62992 z"
       transform="translate(184.25197,-113.38585)" />
    <path
       style="fill:none;stroke:#000000;stroke-width:1px;stroke-linecap:butt;stroke-linejoin:miter;stroke-opacity:1"
       d="m 510.23624,740.55114 0,170.0787"
       id="path3781-7-7"
       inkscape:connector-curvature="0" />
    <path
       style="fill:none;stroke:#000000;stroke-width:1px;stroke-linecap:butt;stroke-linejoin:miter;stroke-opacity:1"
       d="m 481.88979,740.55114 0,170.0787"
       id="path3787-6-7"
       inkscape:connector-curvature="0" />
    <path
       style="fill:none;stroke:#000000;stroke-width:0.81649655px;stroke-linecap:butt;stroke-linejoin:miter;stroke-opacity:1"
       d="m 453.54331,768.89762 113.38582,0"
       id="path3773-4-7"
       inkscape:connector-curvature="0" />
    <path
       style="fill:none;stroke:#000000;stroke-width:0.81649655px;stroke-linecap:butt;stroke-linejoin:miter;stroke-opacity:1"
       d="m 453.54332,825.59051 113.38582,0"
       id="path3775-2-7"
       inkscape:connector-curvature="0" />
    <path
       style="fill:none;stroke:#000000;stroke-width:0.81649655px;stroke-linecap:butt;stroke-linejoin:miter;stroke-opacity:1"
       d="m 453.54332,882.28344 113.38582,0"
       id="path3777-3-3"
       inkscape:connector-curvature="0" />
    <path
       style="fill:none;stroke:#000000;stroke-width:1px;stroke-linecap:butt;stroke-linejoin:miter;stroke-opacity:1"
       d="m 538.58268,740.5512 0,170.0787"
       id="path3781-7-3-3"
       inkscape:connector-curvature="0" />
  </g>
</svg>
